<svg xmlns="http://www.w3.org/2000/svg" width="60" height="60" fill="none" viewBox="0 0 60 60"><path fill="#00a2ff" d="M12.25-3.28h48.99v48.99H12.25z" style="stroke-width:1.22474" transform="rotate(15)"/><path fill="#fff" d="M45.32 2.84h9.8v9.8h-9.8z" style="stroke-width:1.22474" transform="rotate(15)"/><path fill="#fff" d="m9.55 42.08 5.97 1.6-.36 1.36L7.5 43l3.38-12.61 1.67.45zm12.91 3.93q-1.23.84-3.04.36-1.5-.4-2.06-1.48-.54-1.08-.1-2.8L18.9 36l1.6.44-1.62 6.05q-.57 2.13 1.16 2.6 1.85.5 2.81-.72l1.83-6.81 1.6.43-2.5 9.37-1.53-.4zM32 49.56q-.06-.31.04-1.05a3.7 3.7 0 0 1-2.98.44A3.5 3.5 0 0 1 27 47.56a2.7 2.7 0 0 1-.35-2.23q.4-1.46 1.72-1.97 1.34-.51 3.36.03l1.56.41.2-.73q.22-.84-.15-1.47-.37-.64-1.35-.9a2.4 2.4 0 0 0-1.55.05q-.7.27-.87.89l-1.6-.43q.18-.7.85-1.22.68-.53 1.63-.68.96-.15 1.98.12 1.63.45 2.32 1.5.7 1.05.36 2.48l-1.16 4.32q-.34 1.29-.22 2.14l-.04.14zm-2.33-1.94q.75.2 1.53 0 .79-.21 1.26-.76l.51-1.92-1.26-.34q-2.94-.78-3.4.94-.21.75.18 1.31a2 2 0 0 0 1.18.77m12.23 3.6q-1.23.84-3.04.36-1.5-.4-2.05-1.48t-.1-2.8l1.64-6.1 1.6.44-1.62 6.05q-.58 2.13 1.16 2.6 1.83.5 2.8-.72l1.83-6.81 1.6.43-2.5 9.37-1.53-.4z" style="stroke-width:1.22474"/></svg>